# xmcd CD database file
#
# Track frame offsets:
#	150
#	36276
#	71273
#	97557
#	115138
#	157483
#	170743
#	190052
#	208407
#	241654
#
# Disc length: 4148 seconds
#
# Revision: 0
# Processed by: cddbd v1.5.1PL2 Copyright (c) Steve Scherf et al.
# Submitted via: CDex 1.51
#
DISCID=8510320a
DTITLE=Buddy Rich - The All-Star Small Groups
DYEAR=1900
DGENRE=Jazz
TTITLE0=Billie's Bounce
TTITLE1=Sierra Lonely
TTITLE2=Donna Lee
TTITLE3=Chameleon
TTITLE4=Racquet Club
TTITLE5=Gee Baby, Aint I Good to You
TTITLE6=Nirvana
TTITLE7=Indiana
TTITLE8=Loot to Boot
TTITLE9=2nd Avenue Blue
EXTD=
EXTT0=
EXTT1=
EXTT2=
EXTT3=
EXTT4=
EXTT5=
EXTT6=
EXTT7=
EXTT8=
EXTT9=
PLAYORDER=
